<mxfile host="app.diagrams.net" modified="2023-09-21T11:26:14.097Z" agent="Mozilla/5.0 (Macintosh; Intel Mac OS X 10_15_7) AppleWebKit/605.1.15 (KHTML, like Gecko) Version/17.0 Safari/605.1.15" version="21.8.0" etag="1gTyR1xORMXv7wFcGDJ7" type="github">
  <diagram name="Страница — 1" id="2-5jMEcXyABA7YPatudC">
    <mxGraphModel>
      <root>
        <mxCell id="0" />
        <mxCell id="1" parent="0" />
      </root>
    </mxGraphModel>
  </diagram>
</mxfile>
